<svg width="34" height="34" viewBox="0 0 34 34" fill="none" xmlns="http://www.w3.org/2000/svg">
<path d="M17.0001 32.3334C25.4684 32.3334 32.3334 25.4684 32.3334 17.0001C32.3334 8.53172 25.4684 1.66675 17.0001 1.66675C8.53172 1.66675 1.66675 8.53172 1.66675 17.0001C1.66675 25.4684 8.53172 32.3334 17.0001 32.3334Z" stroke="#F96156" stroke-width="2" stroke-miterlimit="10"/>
<path d="M1.66675 17H32.3334" stroke="#F96156" stroke-width="2" stroke-miterlimit="10"/>
<path d="M5.40015 6.8667C7.13348 7.93337 9.46681 9.6667 17.0001 9.6667C24.5335 9.6667 26.5335 8.00003 28.5335 6.8667" stroke="#F96156" stroke-width="2" stroke-miterlimit="10"/>
<path d="M28.7335 26.8667C27.0668 25.8 24.5335 23.9333 17.0002 23.9333C9.46685 23.9333 7.26685 25.7333 5.26685 26.8667" stroke="#F96156" stroke-width="2" stroke-miterlimit="10"/>
<path d="M17.1334 32.3334C20.7049 32.3334 23.6001 25.4684 23.6001 17.0001C23.6001 8.53172 20.7049 1.66675 17.1334 1.66675C13.562 1.66675 10.6667 8.53172 10.6667 17.0001C10.6667 25.4684 13.562 32.3334 17.1334 32.3334Z" stroke="#F96156" stroke-width="2" stroke-miterlimit="10"/>
</svg>
