<svg width="24" height="24" viewBox="0 0 24 24" fill="none" xmlns="http://www.w3.org/2000/svg">
<path d="M5.2846 6.32999C5.34073 6.34408 5.39202 6.37319 5.43291 6.41408L10.0038 10.9851L10.9795 10.0094L6.40861 5.43837C6.36762 5.39738 6.33861 5.34588 6.32452 5.28965C6.32452 5.28965 6.16403 4.27001 6.03685 4.14283C5.90967 4.01575 4.18708 2.99527 4.1298 3.05255C4.07251 3.10984 3.1172 4.06515 3.0472 4.13505C2.9772 4.20505 4.05843 5.96401 4.13779 6.04347C4.21714 6.12293 5.2846 6.32999 5.2846 6.32999Z" fill="#F96156"/>
<path d="M16.8629 14.1151C16.4964 14.4816 15.9022 14.4816 15.5357 14.1151C15.1692 13.7486 15.1692 13.1543 15.5357 12.7878L14.8825 12.1347L12.1294 14.8878L12.7825 15.541C13.149 15.1745 13.7433 15.1745 14.1098 15.541C14.4763 15.9075 14.4763 16.5017 14.1098 16.8682L17.6469 20.4054C18.4071 21.1656 19.6397 21.1656 20.4001 20.4054C21.1603 19.6451 21.1603 18.4126 20.4001 17.6522L16.8629 14.1151Z" fill="#F96156"/>
<path d="M16.8146 9.29127C17.9219 9.63833 19.1796 9.37346 20.057 8.49603C20.846 7.7071 21.1397 6.61073 20.9387 5.59266C20.9337 5.56754 20.9273 5.51299 20.8932 5.54715C20.859 5.58131 19.0595 7.38085 19.0595 7.38085C18.9963 7.44401 18.8739 7.47681 18.7876 7.45368L17.1769 7.02212C17.0905 6.99899 17.001 6.90944 16.9778 6.82304L16.5463 5.21239C16.5231 5.12599 16.5559 5.00365 16.6191 4.94048C16.6191 4.94048 18.4198 3.13979 18.4528 3.10678C18.4858 3.07378 18.4324 3.06621 18.4073 3.06127C17.3892 2.8602 16.2929 3.15398 15.5039 3.94291C14.6265 4.82034 14.3616 6.07805 14.7087 7.18535L7.18539 14.7087C6.07809 14.3616 4.82039 14.6265 3.94296 15.5039C2.68568 16.7612 2.68568 18.7999 3.94296 20.0571C5.20025 21.3144 7.23889 21.3144 8.49617 20.0571C9.3736 19.1797 9.63847 17.922 9.29141 16.8147L16.8146 9.29127ZM6.59753 19.1915L5.18637 18.8134L4.8083 17.4022L5.84129 16.3693L7.25245 16.7473L7.63052 18.1585L6.59753 19.1915Z" fill="#F96156"/>
</svg>
