<svg width="76" height="20" viewBox="0 0 76 20" fill="none" xmlns="http://www.w3.org/2000/svg">
<g clip-path="url(#clip0)">
<path d="M13.9394 7.27261C13.6398 7.27255 13.3469 7.18365 13.0978 7.01716C12.8487 6.85067 12.6545 6.61406 12.5399 6.33724C12.4252 6.06042 12.3952 5.75583 12.4537 5.46196C12.5121 5.16809 12.6563 4.89814 12.8682 4.68625L16.8076 0.746854C17.0933 0.470857 17.4761 0.318138 17.8733 0.32159C18.2706 0.325043 18.6506 0.484389 18.9315 0.765311C19.2125 1.04623 19.3718 1.42625 19.3753 1.82352C19.3787 2.22079 19.226 2.60352 18.95 2.88928L15.0106 6.82867C14.8702 6.96971 14.7032 7.08156 14.5194 7.15775C14.3355 7.23395 14.1384 7.27298 13.9394 7.27261Z" fill="#F96156"/>
<path d="M18.95 17.1106C19.0947 17.2504 19.2101 17.4176 19.2895 17.6024C19.369 17.7873 19.4107 17.9861 19.4125 18.1873C19.4142 18.3885 19.3759 18.588 19.2997 18.7742C19.2235 18.9604 19.111 19.1295 18.9688 19.2718C18.8265 19.4141 18.6573 19.5266 18.4711 19.6028C18.2849 19.6789 18.0854 19.7173 17.8842 19.7155C17.6831 19.7138 17.4842 19.672 17.2994 19.5926C17.1145 19.5132 16.9473 19.3977 16.8076 19.253L9.69697 12.1432L2.58636 19.253C2.3006 19.529 1.91787 19.6817 1.5206 19.6783C1.12333 19.6748 0.743315 19.5155 0.462393 19.2346C0.181472 18.9537 0.0221251 18.5736 0.018673 18.1764C0.0152208 17.7791 0.16794 17.3964 0.443937 17.1106L7.55379 10L0.443937 2.88939C0.16794 2.60363 0.0152208 2.2209 0.018673 1.82363C0.0221251 1.42637 0.181472 1.04635 0.462393 0.765426C0.743315 0.484505 1.12333 0.325158 1.5206 0.321706C1.91787 0.318254 2.3006 0.470973 2.58636 0.74697L18.95 17.1106ZM40.303 10C40.303 15.5144 35.8167 20 30.303 20C27.6509 20 25.1073 18.9464 23.232 17.0711C21.3566 15.1957 20.303 12.6522 20.303 10C20.303 7.34784 21.3566 4.8043 23.232 2.92893C25.1073 1.05357 27.6509 0 30.303 0C35.8167 0 40.303 4.48561 40.303 10ZM37.2727 10C37.2727 8.62152 36.864 7.274 36.0981 6.12784C35.3323 4.98168 34.2438 4.08836 32.9702 3.56084C31.6967 3.03332 30.2953 2.8953 28.9433 3.16422C27.5913 3.43315 26.3494 4.09695 25.3747 5.07168C24.4 6.04641 23.7362 7.28829 23.4673 8.64028C23.1983 9.99227 23.3363 11.3936 23.8639 12.6672C24.3914 13.9407 25.2847 15.0293 26.4309 15.7951C27.577 16.5609 28.9246 16.9697 30.303 16.9697C32.1509 16.9677 33.9225 16.2327 35.2291 14.9261C36.5358 13.6195 37.2707 11.8479 37.2727 10ZM75.1515 10C75.1515 15.5144 70.6651 20 65.1515 20C62.4993 20 59.9558 18.9464 58.0804 17.0711C56.2051 15.1957 55.1515 12.6522 55.1515 10C55.1515 7.34784 56.2051 4.8043 58.0804 2.92893C59.9558 1.05357 62.4993 0 65.1515 0C70.6651 0 75.1515 4.48561 75.1515 10ZM72.1212 10C72.1212 8.62152 71.7124 7.274 70.9466 6.12784C70.1808 4.98168 69.0922 4.08836 67.8187 3.56084C66.5452 3.03332 65.1438 2.8953 63.7918 3.16422C62.4398 3.43315 61.1979 4.09695 60.2232 5.07168C59.2485 6.04641 58.5847 7.28829 58.3157 8.64028C58.0468 9.99227 58.1848 11.3936 58.7124 12.6672C59.2399 13.9407 60.1332 15.0293 61.2794 15.7951C62.4255 16.5609 63.773 16.9697 65.1515 16.9697C66.9994 16.9677 68.771 16.2327 70.0776 14.9261C71.3843 13.6195 72.1192 11.8479 72.1212 10ZM54.2424 16.6667H48.4848C47.7615 16.6667 47.0678 16.3793 46.5564 15.8679C46.0449 15.3564 45.7576 14.6627 45.7576 13.9394V1.81818C45.7576 1.41634 45.5979 1.03095 45.3138 0.746808C45.0297 0.462662 44.6443 0.30303 44.2424 0.30303C43.8406 0.30303 43.4552 0.462662 43.171 0.746808C42.8869 1.03095 42.7273 1.41634 42.7273 1.81818V13.9394C42.7289 15.4659 43.336 16.9294 44.4154 18.0088C45.4948 19.0883 46.9583 19.6954 48.4848 19.697H54.2424C54.6443 19.697 55.0297 19.5373 55.3138 19.2532C55.5979 18.969 55.7576 18.5837 55.7576 18.1818C55.7576 17.78 55.5979 17.3946 55.3138 17.1104C55.0297 16.8263 54.6443 16.6667 54.2424 16.6667Z" fill="white"/>
</g>
<defs>
<clipPath id="clip0">
<rect width="75.1515" height="20" fill="white"/>
</clipPath>
</defs>
</svg>
